<?xml version="1.0" standalone="no"?>
<!DOCTYPE svg PUBLIC "-//W3C//DTD SVG 20010904//EN"
 "http://www.w3.org/TR/2001/REC-SVG-20010904/DTD/svg10.dtd">
<svg version="1.0" xmlns="http://www.w3.org/2000/svg"
 width="512.000000pt" height="512.000000pt" viewBox="0 0 512.000000 512.000000"
 preserveAspectRatio="xMidYMid meet">

<g transform="translate(0.000000,512.000000) scale(0.100000,-0.100000)"
fill="#000000" stroke="none">
<path d="M2503 4958 c-44 -21 -53 -63 -53 -241 0 -154 1 -166 23 -198 43 -65
131 -65 174 0 22 32 23 44 23 198 0 181 -9 220 -56 242 -31 14 -81 13 -111 -1z"/>
<path d="M1301 4637 c-44 -15 -75 -58 -74 -100 1 -40 152 -307 190 -337 51
-40 133 -15 159 46 8 20 12 45 9 57 -13 42 -170 310 -190 322 -33 21 -58 24
-94 12z"/>
<path d="M3750 4636 c-29 -9 -44 -27 -92 -106 -32 -52 -74 -127 -94 -166 -34
-67 -35 -74 -24 -109 22 -67 110 -97 163 -55 26 21 179 278 190 319 7 27 -12
79 -35 99 -28 23 -72 30 -108 18z"/>
<path d="M2418 4200 c-461 -53 -864 -341 -1062 -761 -137 -290 -165 -675 -70
-966 35 -106 70 -170 191 -341 161 -231 231 -380 273 -585 34 -172 34 -167 7
-167 -52 0 -62 -20 -65 -133 -8 -221 29 -349 128 -447 59 -60 160 -111 231
-118 l49 -5 0 -46 c0 -182 122 -352 298 -412 80 -28 246 -27 330 2 162 55 275
206 289 385 l6 72 48 4 c72 7 189 68 240 126 56 63 99 157 110 240 12 93 11
279 -1 302 -6 11 -26 22 -45 26 -34 6 -35 7 -29 43 52 306 112 449 300 716
153 218 199 322 229 522 42 279 -1 558 -125 808 -184 372 -522 632 -928 714
-116 24 -297 33 -404 21z m-147 -1520 c51 -60 94 -110 97 -110 2 0 34 22 71
48 123 90 133 91 222 21 35 -29 69 -56 75 -60 7 -6 45 29 108 101 104 118 126
130 166 90 20 -20 20 -33 20 -705 l0 -685 -60 0 -60 0 0 597 0 597 -66 -72
c-87 -95 -90 -95 -217 10 -34 28 -63 45 -70 41 -7 -4 -50 -33 -96 -65 -46 -32
-94 -58 -107 -58 -21 0 -50 26 -118 105 l-25 30 -1 -592 0 -593 -60 0 -60 0 0
685 c0 672 0 685 20 705 40 40 63 28 161 -90z"/>
<path d="M394 3740 c-59 -24 -83 -113 -44 -162 40 -52 291 -188 345 -188 53 0
95 44 95 100 0 23 -5 50 -10 60 -6 11 -63 51 -128 88 -195 115 -211 121 -258
102z"/>
<path d="M4625 3729 c-120 -64 -276 -162 -285 -179 -5 -10 -10 -37 -10 -60 0
-33 6 -48 29 -71 53 -52 98 -41 299 79 108 64 132 90 132 143 0 84 -86 130
-165 88z"/>
<path d="M34 2486 c-25 -25 -34 -43 -34 -67 0 -51 32 -96 77 -108 49 -14 297
-14 345 -1 69 19 98 92 64 159 -24 45 -52 51 -242 51 l-176 0 -34 -34z"/>
<path d="M4671 2506 c-32 -18 -50 -53 -51 -97 0 -47 30 -85 78 -99 48 -13 296
-13 345 1 89 24 103 160 20 198 -36 16 -362 14 -392 -3z"/>
<path d="M635 1424 c-107 -55 -278 -160 -290 -178 -32 -45 -10 -132 40 -154
53 -24 99 -8 270 94 112 67 135 92 135 146 0 32 -7 47 -34 74 -38 38 -73 43
-121 18z"/>
<path d="M4365 1407 c-28 -28 -35 -43 -35 -75 0 -54 23 -79 135 -146 174 -104
220 -120 274 -92 53 28 69 116 29 159 -35 37 -288 179 -330 184 -33 5 -42 1
-73 -30z"/>
</g>
</svg>
